<svg viewBox="0 0 1440 320" fill="none" xmlns="http://www.w3.org/2000/svg"><path d="M0,192L48,186.7C96,181,192,171,288,181.3C384,192,480,224,576,224C672,224,768,192,864,176C960,160,1056,160,1152,176C1248,192,1344,224,1392,240L1440,256L1440,320L1392,320C1344,320,1248,320,1152,320C1056,320,960,320,864,320C768,320,672,320,576,320C480,320,384,320,288,320C192,320,96,320,48,320L0,320Z" fill="#7dd3fc"/><path d="M0,224L48,229.3C96,235,192,245,288,245.3C384,245,480,235,576,218.7C672,203,768,181,864,176C960,171,1056,181,1152,186.7C1248,192,1344,192,1392,192L1440,192L1440,320L1392,320C1344,320,1248,320,1152,320C1056,320,960,320,864,320C768,320,672,320,576,320C480,320,384,320,288,320C192,320,96,320,48,320L0,320Z" fill="#38bdf8"/></svg>
